<?xml version="1.0" encoding="UTF-8" standalone="no"?>
<!-- Generator: Adobe Illustrator 21.1.0, SVG Export Plug-In . SVG Version: 6.00 Build 0)  -->

<svg
   version="1.1"
   id="Capa_1"
   x="0px"
   y="0px"
   viewBox="0 0 388.5 485.5"
   xml:space="preserve"
   sodipodi:docname="book2.svg"
   inkscape:version="1.1.2 (b8e25be8, 2022-02-05)"
   width="388.5"
   height="485.5"
   xmlns:inkscape="http://www.inkscape.org/namespaces/inkscape"
   xmlns:sodipodi="http://sodipodi.sourceforge.net/DTD/sodipodi-0.dtd"
   xmlns:xlink="http://www.w3.org/1999/xlink"
   xmlns="http://www.w3.org/2000/svg"
   xmlns:svg="http://www.w3.org/2000/svg"><defs
   id="defs32">
	<defs
   id="defs12">
		<rect
   id="SVGID_1_"
   x="64.400002"
   y="11.5"
   width="356.70001"
   height="462.5" />
	</defs>
	<clipPath
   id="SVGID_2_">
		<use
   xlink:href="#SVGID_1_"
   style="overflow:visible"
   id="use14"
   x="0"
   y="0"
   width="100%"
   height="100%" />
	</clipPath>
	

		
	</defs><sodipodi:namedview
   id="namedview30"
   pagecolor="#ffffff"
   bordercolor="#666666"
   borderopacity="1.0"
   inkscape:pageshadow="2"
   inkscape:pageopacity="0.0"
   inkscape:pagecheckerboard="0"
   showgrid="false"
   inkscape:zoom="0.98249228"
   inkscape:cx="123.15618"
   inkscape:cy="242.75"
   inkscape:window-width="1588"
   inkscape:window-height="969"
   inkscape:window-x="0"
   inkscape:window-y="25"
   inkscape:window-maximized="0"
   inkscape:current-layer="Capa_1"
   width="465.5px" />
<style
   type="text/css"
   id="style9">
	.st0{clip-path:url(#SVGID_2_);}
</style>
<g
   id="g23"
   transform="matrix(0.93899379,0,0,0.93899379,-73.125604,-27.815999)">
			<path
   d="m 476.3,164.1 h -315 c -29.2,0 -53,-23.8 -53,-53 0,-29.2 23.8,-53 53,-53 h 315.1 c 7.9,0 14.2,-6.4 14.2,-14.2 0,-7.9 -6.4,-14.2 -14.2,-14.2 H 161.3 c -44.8,0 -81.4,36.5 -81.4,81.4 v 354.4 c 0,44.8 36.5,81.4 81.4,81.4 h 315.1 c 7.9,0 14.2,-6.4 14.2,-14.2 V 178.3 c -0.1,-7.8 -6.4,-14.2 -14.3,-14.2 z M 462.1,518.5 H 161.3 c -29.2,0 -53,-23.8 -53,-53 V 172.9 c 14.3,12.2 32.8,19.7 53,19.7 h 300.8 z"
   id="path17" />
			<path
   d="m 165.8,98.2 c -7.9,0 -14.2,6.4 -14.2,14.2 0,7.8 6.4,14.2 14.2,14.2 h 266.1 c 7.9,0 14.2,-6.4 14.2,-14.2 0,-7.8 -6.4,-14.2 -14.2,-14.2 z"
   id="path19" />
			<path
   d="m 215.6,456.5 c 1.6,0.5 3.2,0.9 4.8,0.9 5.9,0 11.3,-3.6 13.3,-9.4 L 251,399.7 h 66.5 c 0.5,0 1.2,0 1.7,-0.1 l 17.3,48.4 c 2,5.8 7.6,9.4 13.3,9.4 1.6,0 3.2,-0.3 4.8,-0.9 7.3,-2.7 11.2,-10.8 8.5,-18.1 l -64.6,-181 v 0 c -0.1,-0.4 -0.3,-0.9 -0.5,-1.3 -0.1,-0.2 -0.2,-0.4 -0.3,-0.6 -0.1,-0.2 -0.2,-0.4 -0.3,-0.6 -0.1,-0.2 -0.3,-0.4 -0.4,-0.7 -0.1,-0.1 -0.2,-0.3 -0.3,-0.4 -0.1,-0.2 -0.3,-0.4 -0.5,-0.6 -0.1,-0.1 -0.2,-0.3 -0.4,-0.4 -0.1,-0.2 -0.3,-0.3 -0.5,-0.5 -0.2,-0.2 -0.3,-0.3 -0.5,-0.5 -0.1,-0.1 -0.3,-0.2 -0.4,-0.4 -0.2,-0.2 -0.4,-0.3 -0.6,-0.5 -0.1,-0.1 -0.3,-0.2 -0.4,-0.3 -0.2,-0.1 -0.4,-0.3 -0.6,-0.4 -0.2,-0.1 -0.4,-0.2 -0.6,-0.3 -0.2,-0.1 -0.4,-0.2 -0.6,-0.3 -0.4,-0.2 -0.9,-0.4 -1.3,-0.5 v 0 h -0.1 c -0.4,-0.1 -0.9,-0.2 -1.3,-0.3 -0.2,0 -0.3,-0.1 -0.5,-0.1 -0.3,-0.1 -0.5,-0.1 -0.9,-0.2 -0.2,0 -0.4,0 -0.6,-0.1 -0.2,0 -0.5,-0.1 -0.7,-0.1 -0.2,0 -0.4,0 -0.6,0 -0.2,0 -0.4,0 -0.7,0 -0.2,0 -0.5,0 -0.7,0.1 -0.2,0 -0.4,0 -0.6,0.1 -0.3,0 -0.5,0.1 -0.9,0.2 -0.2,0 -0.3,0.1 -0.5,0.1 -0.4,0.1 -0.9,0.2 -1.2,0.3 h -0.1 v 0 c -0.4,0.1 -0.9,0.3 -1.3,0.5 -0.2,0.1 -0.4,0.2 -0.6,0.3 -0.2,0.1 -0.4,0.2 -0.6,0.3 -0.2,0.1 -0.4,0.3 -0.7,0.4 -0.1,0.1 -0.3,0.2 -0.4,0.3 -0.2,0.2 -0.4,0.3 -0.6,0.5 -0.1,0.1 -0.3,0.2 -0.4,0.4 -0.2,0.2 -0.3,0.3 -0.5,0.5 -0.2,0.2 -0.3,0.3 -0.5,0.5 -0.1,0.1 -0.2,0.3 -0.4,0.4 -0.2,0.2 -0.3,0.4 -0.5,0.6 -0.1,0.1 -0.2,0.3 -0.3,0.4 -0.1,0.2 -0.3,0.4 -0.4,0.6 -0.1,0.2 -0.2,0.4 -0.3,0.6 -0.1,0.2 -0.2,0.4 -0.3,0.6 -0.2,0.4 -0.4,0.9 -0.5,1.3 v 0 l -64.8,181 c -3.3,7.5 0.5,15.6 7.8,18.2 z m 69.6,-152.2 24,67.1 h -48 z"
   id="path21" />
		</g>
</svg>
